Coordinates
version=1
nRows=43
nColumns=12
inDegrees=yes

Units are S.I. units (second, meters, Newtons, ...)
Angles are in degrees

endheader
time	SC_y	SC_z	SC_x	AC_y	AC_z	AC_x	GH_y	GH_z	GH_yy	EL_x	PS_y
       0.0              -24.74           10.1          43.25           34.7          6.679          1.025         -96.04          31.52          175.2          81.41          137.8
   0.01378              -24.75           10.1          43.24           34.7          6.678          1.026         -96.03          31.52          175.1           81.4          137.8
   0.02757              -24.75           10.1          43.24          34.69          6.677          1.027         -96.01          31.52          175.1           81.4          137.7
   0.04135              -24.75          10.11          43.24          34.69          6.676          1.028         -95.99          31.51          175.1          81.39          137.7
   0.05514              -24.75          10.11          43.24          34.69          6.675          1.029         -95.97          31.51          175.0          81.39          137.7
   0.06892              -24.75          10.12          43.24          34.69          6.673           1.03         -95.94           31.5          175.0          81.38          137.7
   0.08271              -24.75          10.12          43.24          34.69          6.672          1.031         -95.92          31.49          174.9          81.38          137.7
   0.09649              -24.76          10.13          43.24          34.69          6.671          1.033          -95.9          31.49          174.9          81.37          137.6
    0.1103              -24.76          10.13          43.24          34.69          6.669          1.034         -95.87          31.48          174.8          81.36          137.6
    0.1241              -24.76          10.14          43.23          34.69          6.668          1.035         -95.84          31.47          174.8          81.36          137.6
    0.1378              -24.77          10.14          43.23          34.69          6.666          1.037         -95.81          31.47          174.7          81.35          137.6
    0.1516              -24.77          10.15          43.23          34.69          6.664          1.039         -95.77          31.46          174.6          81.34          137.5
    0.1654              -24.77          10.16          43.23          34.69          6.662           1.04         -95.73          31.45          174.6          81.33          137.5
    0.1792              -24.78          10.17          43.23          34.69           6.66          1.042          -95.7          31.44          174.5          81.32          137.5
     0.193              -24.78          10.18          43.22          34.69          6.658          1.044         -95.65          31.43          174.4          81.31          137.4
    0.2068              -24.78          10.19          43.22          34.69          6.655          1.047         -95.61          31.42          174.3           81.3          137.4
    0.2206              -24.79           10.2          43.22          34.69          6.653          1.049         -95.55           31.4          174.2          81.29          137.3
    0.2343              -24.79          10.21          43.22          34.69           6.65          1.052          -95.5          31.39          174.1          81.27          137.3
    0.2481               -24.8          10.22          43.21          34.69          6.646          1.055         -95.44          31.38          174.0          81.26          137.2
    0.2619               -24.8          10.23          43.21          34.69          6.643          1.058         -95.37          31.36          173.9          81.24          137.1
    0.2757              -24.81          10.25           43.2          34.68          6.639          1.062          -95.3          31.34          173.7          81.22          137.1
    0.2895              -24.82          10.26           43.2          34.68          6.635          1.066         -95.22          31.32          173.6           81.2          137.0
    0.3033              -24.83          10.28          43.19          34.68           6.63           1.07         -95.13           31.3          173.4          81.18          136.9
    0.3171              -24.84           10.3          43.19          34.68          6.625          1.075         -95.03          31.28          173.2          81.16          136.8
    0.3308              -24.85          10.32          43.18          34.68          6.619           1.08         -94.92          31.25          173.0          81.13          136.7
    0.3446              -24.86          10.35          43.18          34.68          6.613          1.086          -94.8          31.22          172.8           81.1          136.6
    0.3584              -24.87          10.38          43.17          34.68          6.605          1.093         -94.67          31.19          172.5          81.06          136.5
    0.3722              -24.88          10.41          43.16          34.67          6.597            1.1         -94.51          31.15          172.2          81.03          136.3
     0.386               -24.9          10.44          43.15          34.67          6.588          1.109         -94.34          31.11          171.8          80.98          136.2
    0.3998              -24.92          10.48          43.14          34.67          6.578          1.118         -94.15          31.06          171.5          80.93          136.0
    0.4135              -24.94          10.53          43.13          34.66          6.566          1.129         -93.92          31.01          171.0          80.88          135.8
    0.4273              -24.96          10.58          43.11          34.66          6.552          1.142         -93.66          30.94          170.5          80.81          135.5
    0.4411              -24.99          10.64           43.1          34.66          6.536          1.156         -93.37          30.87          169.9          80.74          135.3
    0.4549              -25.02          10.71          43.08          34.65          6.518          1.173         -93.02          30.79          169.3          80.65          134.9
    0.4687              -25.06           10.8          43.06          34.65          6.497          1.193         -92.62          30.69          168.5          80.55          134.6
    0.4825               -25.1          10.89          43.03          34.64          6.471          1.216         -92.14          30.57          167.5          80.44          134.1
    0.4963              -25.15          11.01           43.0          34.63          6.441          1.244         -91.58          30.43          166.4          80.29          133.6
      0.51              -25.21          11.15          42.96          34.62          6.405          1.277          -90.9          30.27          165.1          80.13          132.9
    0.5238              -25.29          11.31          42.91          34.61          6.362          1.317         -90.08          30.07          163.5          79.92          132.2
    0.5376              -25.38          11.52          42.86           34.6          6.308          1.366         -89.08          29.82          161.5          79.67          131.2
    0.5514              -25.49          11.77          42.79          34.58          6.243          1.427         -87.84          29.52          159.1          79.36          130.0
    0.5652              -25.63          12.08           42.7          34.56          6.161          1.502          -86.3          29.14          156.1          78.98          128.6
     0.579              -25.81          12.48           42.6          34.53          6.057          1.597         -84.36          28.66          152.3           78.5          126.8
